<?xml version="1.0" encoding="UTF-8" standalone="no"?>
<!-- Created with Inkscape (http://www.inkscape.org/) -->

<svg
   xmlns:dc="http://purl.org/dc/elements/1.1/"
   xmlns:cc="http://creativecommons.org/ns#"
   xmlns:rdf="http://www.w3.org/1999/02/22-rdf-syntax-ns#"
   xmlns:svg="http://www.w3.org/2000/svg"
   xmlns="http://www.w3.org/2000/svg"
   xmlns:sodipodi="http://sodipodi.sourceforge.net/DTD/sodipodi-0.dtd"
   xmlns:inkscape="http://www.inkscape.org/namespaces/inkscape"
   width="58.279423mm"
   height="123.00652mm"
   viewBox="0 0 206.50189 435.84988"
   id="svg2"
   version="1.1"
   inkscape:version="0.91 r13725"
   sodipodi:docname="Fahrzeug Icon top.svg">
  <defs
     id="defs4" />
  <sodipodi:namedview
     id="base"
     pagecolor="#ffffff"
     bordercolor="#666666"
     borderopacity="1.0"
     inkscape:pageopacity="0.0"
     inkscape:pageshadow="2"
     inkscape:zoom="0.7"
     inkscape:cx="-215.68026"
     inkscape:cy="306.05661"
     inkscape:document-units="px"
     inkscape:current-layer="layer1"
     showgrid="false"
     showguides="true"
     gridtolerance="10"
     inkscape:window-width="1536"
     inkscape:window-height="841"
     inkscape:window-x="1592"
     inkscape:window-y="-8"
     inkscape:window-maximized="1"
     fit-margin-top="0"
     fit-margin-left="0"
     fit-margin-right="0"
     fit-margin-bottom="0">
    <inkscape:grid
       type="xygrid"
       id="grid4239"
       originx="-279.71068"
       originy="-305.4178" />
  </sodipodi:namedview>
  <metadata
     id="metadata7">
    <rdf:RDF>
      <cc:Work
         rdf:about="">
        <dc:format>image/svg+xml</dc:format>
        <dc:type
           rdf:resource="http://purl.org/dc/dcmitype/StillImage" />
        <dc:title></dc:title>
      </cc:Work>
    </rdf:RDF>
  </metadata>
  <g
     inkscape:label="Ebene 1"
     inkscape:groupmode="layer"
     id="layer1"
     transform="translate(-279.71068,-311.09451)">
    <rect
       style="opacity:0.99800002;fill:#000000;fill-opacity:1;fill-rule:nonzero;stroke:#ffffff;stroke-width:0;stroke-miterlimit:4;stroke-dasharray:none;stroke-opacity:0.77287065"
       id="rect4136"
       width="205.71428"
       height="417.14291"
       x="279.74295"
       y="311.09451"
       ry="26.981987"
       rx="82.600098" />
    <rect
       style="opacity:0.99800002;fill:#000000;fill-opacity:1;fill-rule:nonzero;stroke:#ffffff;stroke-width:0;stroke-miterlimit:4;stroke-dasharray:none;stroke-opacity:0.77287065"
       id="rect4138"
       width="206.07112"
       height="315.1676"
       x="280.14145"
       y="431.77679"
       rx="30.126019"
       ry="38.8909" />
    <path
       style="fill:none;fill-rule:evenodd;stroke:#000000;stroke-width:1px;stroke-linecap:butt;stroke-linejoin:miter;stroke-opacity:1"
       d="M 331.42857,377.36221 C 378.57143,363.79078 450,373.07649 450,373.07649 l -8.57143,60 -100,0 -9.28572,-52.85714 1.42858,0 z"
       id="path4140"
       inkscape:connector-curvature="0" />
    <path
       style="fill:none;fill-rule:evenodd;stroke:#000000;stroke-width:1px;stroke-linecap:butt;stroke-linejoin:miter;stroke-opacity:1"
       d="m 325.10647,448.44447 c 51.42857,-25 124.28571,-7.85714 124.28571,-7.85714 l -22.85714,70 -80,-0.71429 z"
       id="path4142"
       inkscape:connector-curvature="0" />
    <path
       style="opacity:0.99800002;fill:none;fill-opacity:1;fill-rule:nonzero;stroke:#ffffff;stroke-width:0;stroke-miterlimit:4;stroke-dasharray:none;stroke-opacity:0.77287065"
       d="m 303.82209,745.69644 c -9.80734,-3.02858 -18.08768,-12.63143 -21.93158,-25.43443 -1.21307,-4.04041 -1.2892,-13.81396 -1.47025,-188.74669 l -0.19094,-184.48564 1.52464,-3.54411 c 1.00125,-2.32747 3.15974,-5.07869 6.28775,-8.01436 17.40981,-16.33933 62.93969,-26.20028 108.75284,-23.55389 43.92414,2.53727 77.08927,14.20562 85.9746,30.24809 l 2.12437,3.83555 0.53235,84.28571 c 0.29279,46.35714 0.44453,129.76786 0.33719,185.35714 -0.21629,112.01593 0.16279,103.22653 -4.89694,113.53905 -2.7649,5.63528 -9.46708,12.57863 -14.54403,15.06737 l -3.57143,1.75073 -78.57143,0.12345 c -43.21428,0.0679 -79.375,-0.12468 -80.35714,-0.42797 z"
       id="path4144"
       inkscape:connector-curvature="0" />
    <path
       style="opacity:0.99800002;fill:none;fill-opacity:1;fill-rule:nonzero;stroke:#ffffff;stroke-width:0;stroke-miterlimit:4;stroke-dasharray:none;stroke-opacity:0.77287065"
       d="m 303.82209,745.69644 c -9.80734,-3.02858 -18.08768,-12.63143 -21.93158,-25.43443 -1.21307,-4.04041 -1.2892,-13.81396 -1.47025,-188.74669 l -0.19094,-184.48564 1.52464,-3.54411 c 1.00125,-2.32747 3.15974,-5.07869 6.28775,-8.01436 17.40981,-16.33933 62.93969,-26.20028 108.75284,-23.55389 43.92414,2.53727 77.08927,14.20562 85.9746,30.24809 l 2.12437,3.83555 0.53235,84.28571 c 0.29279,46.35714 0.44453,129.76786 0.33719,185.35714 -0.21629,112.01593 0.16279,103.22653 -4.89694,113.53905 -2.7649,5.63528 -9.46708,12.57863 -14.54403,15.06737 l -3.57143,1.75073 -78.57143,0.12345 c -43.21428,0.0679 -79.375,-0.12468 -80.35714,-0.42797 z"
       id="path4146"
       inkscape:connector-curvature="0" />
    <path
       style="opacity:0.99800002;fill:none;fill-opacity:1;fill-rule:nonzero;stroke:#ffffff;stroke-width:0;stroke-miterlimit:4;stroke-dasharray:none;stroke-opacity:0.77287065"
       d="m 303.82209,745.69644 c -9.80734,-3.02858 -18.08768,-12.63143 -21.93158,-25.43443 -1.21307,-4.04041 -1.2892,-13.81396 -1.47025,-188.74669 l -0.19094,-184.48564 1.52464,-3.54411 c 1.00125,-2.32747 3.15974,-5.07869 6.28775,-8.01436 17.40981,-16.33933 62.93969,-26.20028 108.75284,-23.55389 43.92414,2.53727 77.08927,14.20562 85.9746,30.24809 l 2.12437,3.83555 0.53235,84.28571 c 0.29279,46.35714 0.44453,129.76786 0.33719,185.35714 -0.21629,112.01593 0.16279,103.22653 -4.89694,113.53905 -2.7649,5.63528 -9.46708,12.57863 -14.54403,15.06737 l -3.57143,1.75073 -78.57143,0.12345 c -43.21428,0.0679 -79.375,-0.12468 -80.35714,-0.42797 z"
       id="path4148"
       inkscape:connector-curvature="0" />
    <path
       style="fill:#ffffff;fill-opacity:1;fill-rule:evenodd;stroke:#000000;stroke-width:1.2476511px;stroke-linecap:butt;stroke-linejoin:miter;stroke-opacity:1"
       d="m 303.24036,420.31238 c 79.72325,-30.81221 159.43908,0.52898 159.43908,0.52898 l -27.13272,78.13931 -105.21688,0.7877 z"
       id="path4152"
       inkscape:connector-curvature="0"
       sodipodi:nodetypes="ccccc" />
    <path
       style="fill:#ffffff;fill-opacity:1;fill-rule:evenodd;stroke:#000000;stroke-width:1px;stroke-linecap:butt;stroke-linejoin:miter;stroke-opacity:1"
       d="m 294.12237,450.39219 0.42244,114.18283 28.93312,5.1884 -0.0784,-63.74925 z"
       id="path4156"
       inkscape:connector-curvature="0"
       sodipodi:nodetypes="ccccc" />
    <path
       style="fill:#ffffff;fill-opacity:1;fill-rule:evenodd;stroke:#000000;stroke-width:1px;stroke-linecap:butt;stroke-linejoin:miter;stroke-opacity:1"
       d="m 295.49018,657.06797 -0.87993,-83.51205 28.84382,5.20489 10e-6,61.74557 z"
       id="path4156-17"
       inkscape:connector-curvature="0"
       sodipodi:nodetypes="ccccc" />
    <path
       style="fill:#ffffff;fill-opacity:1;fill-rule:evenodd;stroke:#000000;stroke-width:1px;stroke-linecap:butt;stroke-linejoin:miter;stroke-opacity:1"
       d="m 313.11041,684.43623 136.84084,0.50508 -14.64285,-32.5 -105.41227,-0.50509 z"
       id="path4152-7"
       inkscape:connector-curvature="0"
       sodipodi:nodetypes="ccccc" />
    <path
       style="fill:#ffffff;fill-opacity:1;fill-rule:evenodd;stroke:#000000;stroke-width:1px;stroke-linecap:butt;stroke-linejoin:miter;stroke-opacity:1"
       d="m 471.75636,450.05562 -0.10677,114.43537 -28.93312,5.1884 -0.30424,-63.75625 z"
       id="path4156-8"
       inkscape:connector-curvature="0"
       sodipodi:nodetypes="ccccc" />
    <path
       style="fill:#ffffff;fill-opacity:1;fill-rule:evenodd;stroke:#000000;stroke-width:1px;stroke-linecap:butt;stroke-linejoin:miter;stroke-opacity:1"
       d="m 470.70422,656.98394 0.87993,-83.51205 -28.84382,5.20489 -10e-6,61.74557 z"
       id="path4156-17-0"
       inkscape:connector-curvature="0"
       sodipodi:nodetypes="ccccc" />
    <path
       style="fill:none;fill-rule:evenodd;stroke:#ffffff;stroke-width:1px;stroke-linecap:butt;stroke-linejoin:miter;stroke-opacity:1"
       d="m 279.71068,337.56407 c 11.61675,0 18.22075,0 28.22075,-5 10,-5 15,-18.60364 15,-18.60364"
       id="path4298"
       inkscape:connector-curvature="0"
       sodipodi:nodetypes="csc" />
    <path
       style="fill:none;fill-rule:evenodd;stroke:#ffffff;stroke-width:1px;stroke-linecap:butt;stroke-linejoin:miter;stroke-opacity:1"
       d="m 485.4792,337.55068 c -11.61675,0 -18.22075,0 -28.22075,-5 -10,-5 -15,-18.60364 -15,-18.60364"
       id="path4298-1"
       inkscape:connector-curvature="0"
       sodipodi:nodetypes="csc" />
  </g>
</svg>
